{
	"patcher" : 	{
		"fileversion" : 1,
		"appversion" : 		{
			"major" : 7,
			"minor" : 3,
			"revision" : 4,
			"architecture" : "x86",
			"modernui" : 1
		}
,
		"rect" : [ 492.0, 85.0, 459.0, 744.0 ],
		"bglocked" : 0,
		"openinpresentation" : 0,
		"default_fontsize" : 12.0,
		"default_fontface" : 0,
		"default_fontname" : "Arial",
		"gridonopen" : 1,
		"gridsize" : [ 15.0, 15.0 ],
		"gridsnaponopen" : 1,
		"objectsnaponopen" : 1,
		"statusbarvisible" : 2,
		"toolbarvisible" : 1,
		"lefttoolbarpinned" : 0,
		"toptoolbarpinned" : 0,
		"righttoolbarpinned" : 0,
		"bottomtoolbarpinned" : 0,
		"toolbars_unpinned_last_save" : 0,
		"tallnewobj" : 0,
		"boxanimatetime" : 200,
		"enablehscroll" : 1,
		"enablevscroll" : 1,
		"devicewidth" : 0.0,
		"description" : "",
		"digest" : "",
		"tags" : "",
		"style" : "",
		"subpatcher_template" : "",
		"boxes" : [ 			{
				"box" : 				{
					"format" : 6,
					"id" : "obj-47",
					"maxclass" : "flonum",
					"numinlets" : 1,
					"numoutlets" : 2,
					"outlettype" : [ "", "bang" ],
					"parameter_enable" : 0,
					"patching_rect" : [ 255.0, 150.0, 50.0, 22.0 ],
					"style" : ""
				}

			}
, 			{
				"box" : 				{
					"id" : "obj-48",
					"maxclass" : "newobj",
					"numinlets" : 3,
					"numoutlets" : 1,
					"outlettype" : [ "signal" ],
					"patching_rect" : [ 225.0, 255.0, 90.0, 22.0 ],
					"style" : "",
					"text" : "lores~ 200. 0.9"
				}

			}
, 			{
				"box" : 				{
					"id" : "obj-46",
					"maxclass" : "newobj",
					"numinlets" : 2,
					"numoutlets" : 1,
					"outlettype" : [ "signal" ],
					"patching_rect" : [ 225.0, 225.0, 29.5, 22.0 ],
					"style" : "",
					"text" : "-~"
				}

			}
, 			{
				"box" : 				{
					"id" : "obj-42",
					"maxclass" : "newobj",
					"numinlets" : 2,
					"numoutlets" : 1,
					"outlettype" : [ "signal" ],
					"patching_rect" : [ 345.0, 225.0, 29.5, 22.0 ],
					"style" : "",
					"text" : "-~"
				}

			}
, 			{
				"box" : 				{
					"format" : 6,
					"id" : "obj-41",
					"maxclass" : "flonum",
					"numinlets" : 1,
					"numoutlets" : 2,
					"outlettype" : [ "", "bang" ],
					"parameter_enable" : 0,
					"patching_rect" : [ 375.0, 150.0, 50.0, 22.0 ],
					"style" : ""
				}

			}
, 			{
				"box" : 				{
					"id" : "obj-40",
					"maxclass" : "newobj",
					"numinlets" : 3,
					"numoutlets" : 1,
					"outlettype" : [ "signal" ],
					"patching_rect" : [ 345.0, 180.0, 90.0, 22.0 ],
					"style" : "",
					"text" : "lores~ 200. 0.9"
				}

			}
, 			{
				"box" : 				{
					"format" : 6,
					"id" : "obj-34",
					"maxclass" : "flonum",
					"numinlets" : 1,
					"numoutlets" : 2,
					"outlettype" : [ "", "bang" ],
					"parameter_enable" : 0,
					"patching_rect" : [ 105.0, 120.0, 50.0, 22.0 ],
					"style" : ""
				}

			}
, 			{
				"box" : 				{
					"id" : "obj-32",
					"maxclass" : "newobj",
					"numinlets" : 3,
					"numoutlets" : 1,
					"outlettype" : [ "signal" ],
					"patching_rect" : [ 30.0, 180.0, 90.0, 22.0 ],
					"style" : "",
					"text" : "lores~ 200. 0.9"
				}

			}
, 			{
				"box" : 				{
					"id" : "obj-55",
					"maxclass" : "newobj",
					"numinlets" : 2,
					"numoutlets" : 1,
					"outlettype" : [ "" ],
					"patcher" : 					{
						"fileversion" : 1,
						"appversion" : 						{
							"major" : 7,
							"minor" : 3,
							"revision" : 4,
							"architecture" : "x86",
							"modernui" : 1
						}
,
						"rect" : [ 156.0, 135.0, 218.0, 480.0 ],
						"bglocked" : 0,
						"openinpresentation" : 0,
						"default_fontsize" : 12.0,
						"default_fontface" : 0,
						"default_fontname" : "Arial",
						"gridonopen" : 1,
						"gridsize" : [ 15.0, 15.0 ],
						"gridsnaponopen" : 1,
						"objectsnaponopen" : 1,
						"statusbarvisible" : 2,
						"toolbarvisible" : 1,
						"lefttoolbarpinned" : 0,
						"toptoolbarpinned" : 0,
						"righttoolbarpinned" : 0,
						"bottomtoolbarpinned" : 0,
						"toolbars_unpinned_last_save" : 0,
						"tallnewobj" : 0,
						"boxanimatetime" : 200,
						"enablehscroll" : 1,
						"enablevscroll" : 1,
						"devicewidth" : 0.0,
						"description" : "",
						"digest" : "",
						"tags" : "",
						"style" : "",
						"subpatcher_template" : "",
						"boxes" : [ 							{
								"box" : 								{
									"comment" : "",
									"id" : "obj-1",
									"index" : 2,
									"maxclass" : "inlet",
									"numinlets" : 0,
									"numoutlets" : 1,
									"outlettype" : [ "" ],
									"patching_rect" : [ 100.0, 40.0, 30.0, 30.0 ],
									"style" : ""
								}

							}
, 							{
								"box" : 								{
									"id" : "obj-49",
									"maxclass" : "newobj",
									"numinlets" : 1,
									"numoutlets" : 2,
									"outlettype" : [ "bang", "float" ],
									"patching_rect" : [ 50.0, 95.0, 31.0, 22.0 ],
									"style" : "",
									"text" : "t b f"
								}

							}
, 							{
								"box" : 								{
									"format" : 6,
									"id" : "obj-48",
									"maxclass" : "flonum",
									"maximum" : 0.99,
									"minimum" : 0.0,
									"numinlets" : 1,
									"numoutlets" : 2,
									"outlettype" : [ "", "bang" ],
									"parameter_enable" : 1,
									"patching_rect" : [ 100.0, 80.0, 50.0, 22.0 ],
									"saved_attribute_attributes" : 									{
										"valueof" : 										{
											"parameter_longname" : "number[2]",
											"parameter_shortname" : "number",
											"parameter_type" : 3,
											"parameter_initial_enable" : 1,
											"parameter_initial" : [ 0.2 ],
											"parameter_invisible" : 1
										}

									}
,
									"style" : "",
									"varname" : "number"
								}

							}
, 							{
								"box" : 								{
									"fontname" : "Arial",
									"fontsize" : 12.26173,
									"id" : "obj-29",
									"maxclass" : "newobj",
									"numinlets" : 3,
									"numoutlets" : 1,
									"outlettype" : [ "float" ],
									"patcher" : 									{
										"fileversion" : 1,
										"appversion" : 										{
											"major" : 7,
											"minor" : 3,
											"revision" : 4,
											"architecture" : "x86",
											"modernui" : 1
										}
,
										"rect" : [ 484.0, 148.0, 640.0, 480.0 ],
										"bglocked" : 0,
										"openinpresentation" : 0,
										"default_fontsize" : 12.0,
										"default_fontface" : 0,
										"default_fontname" : "Arial",
										"gridonopen" : 1,
										"gridsize" : [ 15.0, 15.0 ],
										"gridsnaponopen" : 1,
										"objectsnaponopen" : 1,
										"statusbarvisible" : 2,
										"toolbarvisible" : 1,
										"lefttoolbarpinned" : 0,
										"toptoolbarpinned" : 0,
										"righttoolbarpinned" : 0,
										"bottomtoolbarpinned" : 0,
										"toolbars_unpinned_last_save" : 0,
										"tallnewobj" : 0,
										"boxanimatetime" : 200,
										"enablehscroll" : 1,
										"enablevscroll" : 1,
										"devicewidth" : 0.0,
										"description" : "",
										"digest" : "",
										"tags" : "",
										"style" : "",
										"subpatcher_template" : "",
										"boxes" : [ 											{
												"box" : 												{
													"fontname" : "Arial",
													"fontsize" : 12.0,
													"id" : "obj-2",
													"maxclass" : "newobj",
													"numinlets" : 2,
													"numoutlets" : 1,
													"outlettype" : [ "float" ],
													"patching_rect" : [ 189.0, 100.0, 55.0, 22.0 ],
													"style" : "",
													"text" : "!- 1."
												}

											}
, 											{
												"box" : 												{
													"fontname" : "Arial",
													"fontsize" : 12.0,
													"id" : "obj-15",
													"maxclass" : "newobj",
													"numinlets" : 2,
													"numoutlets" : 1,
													"outlettype" : [ "float" ],
													"patching_rect" : [ 96.0, 277.0, 39.0, 22.0 ],
													"style" : "",
													"text" : "* 0.9"
												}

											}
, 											{
												"box" : 												{
													"fontname" : "Arial",
													"fontsize" : 12.0,
													"id" : "obj-16",
													"maxclass" : "newobj",
													"numinlets" : 2,
													"numoutlets" : 1,
													"outlettype" : [ "float" ],
													"patching_rect" : [ 50.0, 307.0, 65.0, 22.0 ],
													"style" : "",
													"text" : "+ 0."
												}

											}
, 											{
												"box" : 												{
													"fontname" : "Arial",
													"fontsize" : 12.0,
													"id" : "obj-17",
													"maxclass" : "newobj",
													"numinlets" : 2,
													"numoutlets" : 1,
													"outlettype" : [ "float" ],
													"patching_rect" : [ 50.0, 277.0, 39.0, 22.0 ],
													"style" : "",
													"text" : "* 0.1"
												}

											}
, 											{
												"box" : 												{
													"fontname" : "Arial",
													"fontsize" : 12.0,
													"id" : "obj-20",
													"maxclass" : "newobj",
													"numinlets" : 2,
													"numoutlets" : 1,
													"outlettype" : [ "float" ],
													"patching_rect" : [ 50.0, 247.0, 27.0, 22.0 ],
													"style" : "",
													"text" : "f"
												}

											}
, 											{
												"box" : 												{
													"comment" : "",
													"id" : "obj-25",
													"index" : 1,
													"maxclass" : "inlet",
													"numinlets" : 0,
													"numoutlets" : 1,
													"outlettype" : [ "bang" ],
													"patching_rect" : [ 56.0, 40.0, 25.0, 25.0 ],
													"style" : ""
												}

											}
, 											{
												"box" : 												{
													"comment" : "",
													"id" : "obj-26",
													"index" : 2,
													"maxclass" : "inlet",
													"numinlets" : 0,
													"numoutlets" : 1,
													"outlettype" : [ "float" ],
													"patching_rect" : [ 90.0, 40.0, 25.0, 25.0 ],
													"style" : ""
												}

											}
, 											{
												"box" : 												{
													"comment" : "",
													"id" : "obj-27",
													"index" : 3,
													"maxclass" : "inlet",
													"numinlets" : 0,
													"numoutlets" : 1,
													"outlettype" : [ "" ],
													"patching_rect" : [ 119.0, 40.0, 25.0, 25.0 ],
													"style" : ""
												}

											}
, 											{
												"box" : 												{
													"comment" : "",
													"id" : "obj-28",
													"index" : 1,
													"maxclass" : "outlet",
													"numinlets" : 1,
													"numoutlets" : 0,
													"patching_rect" : [ 50.0, 399.5, 25.0, 25.0 ],
													"style" : ""
												}

											}
 ],
										"lines" : [ 											{
												"patchline" : 												{
													"destination" : [ "obj-16", 1 ],
													"source" : [ "obj-15", 0 ]
												}

											}
, 											{
												"patchline" : 												{
													"destination" : [ "obj-15", 0 ],
													"midpoints" : [ 59.5, 337.0, 153.0, 337.0, 153.0, 264.0, 105.5, 264.0 ],
													"order" : 0,
													"source" : [ "obj-16", 0 ]
												}

											}
, 											{
												"patchline" : 												{
													"destination" : [ "obj-28", 0 ],
													"order" : 1,
													"source" : [ "obj-16", 0 ]
												}

											}
, 											{
												"patchline" : 												{
													"destination" : [ "obj-16", 0 ],
													"source" : [ "obj-17", 0 ]
												}

											}
, 											{
												"patchline" : 												{
													"destination" : [ "obj-15", 1 ],
													"midpoints" : [ 198.5, 181.0, 125.5, 181.0 ],
													"source" : [ "obj-2", 0 ]
												}

											}
, 											{
												"patchline" : 												{
													"destination" : [ "obj-17", 0 ],
													"source" : [ "obj-20", 0 ]
												}

											}
, 											{
												"patchline" : 												{
													"destination" : [ "obj-20", 0 ],
													"source" : [ "obj-25", 0 ]
												}

											}
, 											{
												"patchline" : 												{
													"destination" : [ "obj-20", 1 ],
													"source" : [ "obj-26", 0 ]
												}

											}
, 											{
												"patchline" : 												{
													"destination" : [ "obj-17", 1 ],
													"order" : 1,
													"source" : [ "obj-27", 0 ]
												}

											}
, 											{
												"patchline" : 												{
													"destination" : [ "obj-2", 0 ],
													"order" : 0,
													"source" : [ "obj-27", 0 ]
												}

											}
 ]
									}
,
									"patching_rect" : [ 50.0, 131.0, 69.0, 23.0 ],
									"saved_object_attributes" : 									{
										"description" : "",
										"digest" : "",
										"globalpatchername" : "",
										"style" : "",
										"tags" : ""
									}
,
									"style" : "",
									"text" : "p smooth"
								}

							}
, 							{
								"box" : 								{
									"id" : "obj-39",
									"maxclass" : "newobj",
									"numinlets" : 1,
									"numoutlets" : 2,
									"outlettype" : [ "float", "float" ],
									"patching_rect" : [ 50.0, 197.0, 29.5, 22.0 ],
									"style" : "",
									"text" : "t f f"
								}

							}
, 							{
								"box" : 								{
									"id" : "obj-35",
									"maxclass" : "newobj",
									"numinlets" : 2,
									"numoutlets" : 1,
									"outlettype" : [ "" ],
									"patching_rect" : [ 60.5, 259.0, 34.0, 22.0 ],
									"style" : "",
									"text" : "gate"
								}

							}
, 							{
								"box" : 								{
									"id" : "obj-34",
									"maxclass" : "newobj",
									"numinlets" : 2,
									"numoutlets" : 1,
									"outlettype" : [ "int" ],
									"patching_rect" : [ 60.5, 227.0, 44.0, 22.0 ],
									"style" : "",
									"text" : "< 255."
								}

							}
, 							{
								"box" : 								{
									"id" : "obj-28",
									"maxclass" : "newobj",
									"numinlets" : 6,
									"numoutlets" : 1,
									"outlettype" : [ "" ],
									"patching_rect" : [ 50.0, 166.0, 105.0, 22.0 ],
									"style" : "",
									"text" : "scale 0. 1. 1. 255."
								}

							}
, 							{
								"box" : 								{
									"comment" : "",
									"id" : "obj-41",
									"index" : 1,
									"maxclass" : "inlet",
									"numinlets" : 0,
									"numoutlets" : 1,
									"outlettype" : [ "float" ],
									"patching_rect" : [ 50.0, 40.0, 30.0, 30.0 ],
									"style" : ""
								}

							}
, 							{
								"box" : 								{
									"comment" : "",
									"id" : "obj-42",
									"index" : 1,
									"maxclass" : "outlet",
									"numinlets" : 1,
									"numoutlets" : 0,
									"patching_rect" : [ 60.5, 341.0, 30.0, 30.0 ],
									"style" : ""
								}

							}
 ],
						"lines" : [ 							{
								"patchline" : 								{
									"destination" : [ "obj-48", 0 ],
									"source" : [ "obj-1", 0 ]
								}

							}
, 							{
								"patchline" : 								{
									"destination" : [ "obj-39", 0 ],
									"source" : [ "obj-28", 0 ]
								}

							}
, 							{
								"patchline" : 								{
									"destination" : [ "obj-28", 0 ],
									"source" : [ "obj-29", 0 ]
								}

							}
, 							{
								"patchline" : 								{
									"destination" : [ "obj-35", 0 ],
									"source" : [ "obj-34", 0 ]
								}

							}
, 							{
								"patchline" : 								{
									"destination" : [ "obj-42", 0 ],
									"source" : [ "obj-35", 0 ]
								}

							}
, 							{
								"patchline" : 								{
									"destination" : [ "obj-34", 0 ],
									"source" : [ "obj-39", 1 ]
								}

							}
, 							{
								"patchline" : 								{
									"destination" : [ "obj-35", 1 ],
									"source" : [ "obj-39", 0 ]
								}

							}
, 							{
								"patchline" : 								{
									"destination" : [ "obj-49", 0 ],
									"source" : [ "obj-41", 0 ]
								}

							}
, 							{
								"patchline" : 								{
									"destination" : [ "obj-29", 2 ],
									"source" : [ "obj-48", 0 ]
								}

							}
, 							{
								"patchline" : 								{
									"destination" : [ "obj-29", 1 ],
									"source" : [ "obj-49", 1 ]
								}

							}
, 							{
								"patchline" : 								{
									"destination" : [ "obj-29", 0 ],
									"source" : [ "obj-49", 0 ]
								}

							}
 ]
					}
,
					"patching_rect" : [ 120.0, 495.0, 57.0, 22.0 ],
					"saved_object_attributes" : 					{
						"description" : "",
						"digest" : "",
						"globalpatchername" : "",
						"style" : "",
						"tags" : ""
					}
,
					"style" : "",
					"text" : "p Limiter"
				}

			}
, 			{
				"box" : 				{
					"id" : "obj-51",
					"maxclass" : "newobj",
					"numinlets" : 2,
					"numoutlets" : 1,
					"outlettype" : [ "" ],
					"patcher" : 					{
						"fileversion" : 1,
						"appversion" : 						{
							"major" : 7,
							"minor" : 3,
							"revision" : 4,
							"architecture" : "x86",
							"modernui" : 1
						}
,
						"rect" : [ 156.0, 135.0, 218.0, 480.0 ],
						"bglocked" : 0,
						"openinpresentation" : 0,
						"default_fontsize" : 12.0,
						"default_fontface" : 0,
						"default_fontname" : "Arial",
						"gridonopen" : 1,
						"gridsize" : [ 15.0, 15.0 ],
						"gridsnaponopen" : 1,
						"objectsnaponopen" : 1,
						"statusbarvisible" : 2,
						"toolbarvisible" : 1,
						"lefttoolbarpinned" : 0,
						"toptoolbarpinned" : 0,
						"righttoolbarpinned" : 0,
						"bottomtoolbarpinned" : 0,
						"toolbars_unpinned_last_save" : 0,
						"tallnewobj" : 0,
						"boxanimatetime" : 200,
						"enablehscroll" : 1,
						"enablevscroll" : 1,
						"devicewidth" : 0.0,
						"description" : "",
						"digest" : "",
						"tags" : "",
						"style" : "",
						"subpatcher_template" : "",
						"boxes" : [ 							{
								"box" : 								{
									"comment" : "",
									"id" : "obj-1",
									"index" : 2,
									"maxclass" : "inlet",
									"numinlets" : 0,
									"numoutlets" : 1,
									"outlettype" : [ "" ],
									"patching_rect" : [ 100.0, 40.0, 30.0, 30.0 ],
									"style" : ""
								}

							}
, 							{
								"box" : 								{
									"id" : "obj-49",
									"maxclass" : "newobj",
									"numinlets" : 1,
									"numoutlets" : 2,
									"outlettype" : [ "bang", "float" ],
									"patching_rect" : [ 50.0, 95.0, 31.0, 22.0 ],
									"style" : "",
									"text" : "t b f"
								}

							}
, 							{
								"box" : 								{
									"format" : 6,
									"id" : "obj-48",
									"maxclass" : "flonum",
									"maximum" : 0.99,
									"minimum" : 0.0,
									"numinlets" : 1,
									"numoutlets" : 2,
									"outlettype" : [ "", "bang" ],
									"parameter_enable" : 1,
									"patching_rect" : [ 100.0, 80.0, 50.0, 22.0 ],
									"saved_attribute_attributes" : 									{
										"valueof" : 										{
											"parameter_longname" : "number[1]",
											"parameter_shortname" : "number",
											"parameter_type" : 3,
											"parameter_initial_enable" : 1,
											"parameter_initial" : [ 0.2 ],
											"parameter_invisible" : 1
										}

									}
,
									"style" : "",
									"varname" : "number"
								}

							}
, 							{
								"box" : 								{
									"fontname" : "Arial",
									"fontsize" : 12.26173,
									"id" : "obj-29",
									"maxclass" : "newobj",
									"numinlets" : 3,
									"numoutlets" : 1,
									"outlettype" : [ "float" ],
									"patcher" : 									{
										"fileversion" : 1,
										"appversion" : 										{
											"major" : 7,
											"minor" : 3,
											"revision" : 4,
											"architecture" : "x86",
											"modernui" : 1
										}
,
										"rect" : [ 484.0, 148.0, 640.0, 480.0 ],
										"bglocked" : 0,
										"openinpresentation" : 0,
										"default_fontsize" : 12.0,
										"default_fontface" : 0,
										"default_fontname" : "Arial",
										"gridonopen" : 1,
										"gridsize" : [ 15.0, 15.0 ],
										"gridsnaponopen" : 1,
										"objectsnaponopen" : 1,
										"statusbarvisible" : 2,
										"toolbarvisible" : 1,
										"lefttoolbarpinned" : 0,
										"toptoolbarpinned" : 0,
										"righttoolbarpinned" : 0,
										"bottomtoolbarpinned" : 0,
										"toolbars_unpinned_last_save" : 0,
										"tallnewobj" : 0,
										"boxanimatetime" : 200,
										"enablehscroll" : 1,
										"enablevscroll" : 1,
										"devicewidth" : 0.0,
										"description" : "",
										"digest" : "",
										"tags" : "",
										"style" : "",
										"subpatcher_template" : "",
										"boxes" : [ 											{
												"box" : 												{
													"fontname" : "Arial",
													"fontsize" : 12.0,
													"id" : "obj-2",
													"maxclass" : "newobj",
													"numinlets" : 2,
													"numoutlets" : 1,
													"outlettype" : [ "float" ],
													"patching_rect" : [ 189.0, 100.0, 55.0, 22.0 ],
													"style" : "",
													"text" : "!- 1."
												}

											}
, 											{
												"box" : 												{
													"fontname" : "Arial",
													"fontsize" : 12.0,
													"id" : "obj-15",
													"maxclass" : "newobj",
													"numinlets" : 2,
													"numoutlets" : 1,
													"outlettype" : [ "float" ],
													"patching_rect" : [ 96.0, 277.0, 39.0, 22.0 ],
													"style" : "",
													"text" : "* 0.9"
												}

											}
, 											{
												"box" : 												{
													"fontname" : "Arial",
													"fontsize" : 12.0,
													"id" : "obj-16",
													"maxclass" : "newobj",
													"numinlets" : 2,
													"numoutlets" : 1,
													"outlettype" : [ "float" ],
													"patching_rect" : [ 50.0, 307.0, 65.0, 22.0 ],
													"style" : "",
													"text" : "+ 0."
												}

											}
, 											{
												"box" : 												{
													"fontname" : "Arial",
													"fontsize" : 12.0,
													"id" : "obj-17",
													"maxclass" : "newobj",
													"numinlets" : 2,
													"numoutlets" : 1,
													"outlettype" : [ "float" ],
													"patching_rect" : [ 50.0, 277.0, 39.0, 22.0 ],
													"style" : "",
													"text" : "* 0.1"
												}

											}
, 											{
												"box" : 												{
													"fontname" : "Arial",
													"fontsize" : 12.0,
													"id" : "obj-20",
													"maxclass" : "newobj",
													"numinlets" : 2,
													"numoutlets" : 1,
													"outlettype" : [ "float" ],
													"patching_rect" : [ 50.0, 247.0, 27.0, 22.0 ],
													"style" : "",
													"text" : "f"
												}

											}
, 											{
												"box" : 												{
													"comment" : "",
													"id" : "obj-25",
													"index" : 1,
													"maxclass" : "inlet",
													"numinlets" : 0,
													"numoutlets" : 1,
													"outlettype" : [ "bang" ],
													"patching_rect" : [ 56.0, 40.0, 25.0, 25.0 ],
													"style" : ""
												}

											}
, 											{
												"box" : 												{
													"comment" : "",
													"id" : "obj-26",
													"index" : 2,
													"maxclass" : "inlet",
													"numinlets" : 0,
													"numoutlets" : 1,
													"outlettype" : [ "float" ],
													"patching_rect" : [ 90.0, 40.0, 25.0, 25.0 ],
													"style" : ""
												}

											}
, 											{
												"box" : 												{
													"comment" : "",
													"id" : "obj-27",
													"index" : 3,
													"maxclass" : "inlet",
													"numinlets" : 0,
													"numoutlets" : 1,
													"outlettype" : [ "" ],
													"patching_rect" : [ 119.0, 40.0, 25.0, 25.0 ],
													"style" : ""
												}

											}
, 											{
												"box" : 												{
													"comment" : "",
													"id" : "obj-28",
													"index" : 1,
													"maxclass" : "outlet",
													"numinlets" : 1,
													"numoutlets" : 0,
													"patching_rect" : [ 50.0, 399.5, 25.0, 25.0 ],
													"style" : ""
												}

											}
 ],
										"lines" : [ 											{
												"patchline" : 												{
													"destination" : [ "obj-16", 1 ],
													"source" : [ "obj-15", 0 ]
												}

											}
, 											{
												"patchline" : 												{
													"destination" : [ "obj-15", 0 ],
													"midpoints" : [ 59.5, 337.0, 153.0, 337.0, 153.0, 264.0, 105.5, 264.0 ],
													"order" : 0,
													"source" : [ "obj-16", 0 ]
												}

											}
, 											{
												"patchline" : 												{
													"destination" : [ "obj-28", 0 ],
													"order" : 1,
													"source" : [ "obj-16", 0 ]
												}

											}
, 											{
												"patchline" : 												{
													"destination" : [ "obj-16", 0 ],
													"source" : [ "obj-17", 0 ]
												}

											}
, 											{
												"patchline" : 												{
													"destination" : [ "obj-15", 1 ],
													"midpoints" : [ 198.5, 181.0, 125.5, 181.0 ],
													"source" : [ "obj-2", 0 ]
												}

											}
, 											{
												"patchline" : 												{
													"destination" : [ "obj-17", 0 ],
													"source" : [ "obj-20", 0 ]
												}

											}
, 											{
												"patchline" : 												{
													"destination" : [ "obj-20", 0 ],
													"source" : [ "obj-25", 0 ]
												}

											}
, 											{
												"patchline" : 												{
													"destination" : [ "obj-20", 1 ],
													"source" : [ "obj-26", 0 ]
												}

											}
, 											{
												"patchline" : 												{
													"destination" : [ "obj-17", 1 ],
													"order" : 1,
													"source" : [ "obj-27", 0 ]
												}

											}
, 											{
												"patchline" : 												{
													"destination" : [ "obj-2", 0 ],
													"order" : 0,
													"source" : [ "obj-27", 0 ]
												}

											}
 ]
									}
,
									"patching_rect" : [ 50.0, 131.0, 69.0, 23.0 ],
									"saved_object_attributes" : 									{
										"description" : "",
										"digest" : "",
										"globalpatchername" : "",
										"style" : "",
										"tags" : ""
									}
,
									"style" : "",
									"text" : "p smooth"
								}

							}
, 							{
								"box" : 								{
									"id" : "obj-39",
									"maxclass" : "newobj",
									"numinlets" : 1,
									"numoutlets" : 2,
									"outlettype" : [ "float", "float" ],
									"patching_rect" : [ 50.0, 197.0, 29.5, 22.0 ],
									"style" : "",
									"text" : "t f f"
								}

							}
, 							{
								"box" : 								{
									"id" : "obj-35",
									"maxclass" : "newobj",
									"numinlets" : 2,
									"numoutlets" : 1,
									"outlettype" : [ "" ],
									"patching_rect" : [ 60.5, 259.0, 34.0, 22.0 ],
									"style" : "",
									"text" : "gate"
								}

							}
, 							{
								"box" : 								{
									"id" : "obj-34",
									"maxclass" : "newobj",
									"numinlets" : 2,
									"numoutlets" : 1,
									"outlettype" : [ "int" ],
									"patching_rect" : [ 60.5, 227.0, 44.0, 22.0 ],
									"style" : "",
									"text" : "< 255."
								}

							}
, 							{
								"box" : 								{
									"id" : "obj-28",
									"maxclass" : "newobj",
									"numinlets" : 6,
									"numoutlets" : 1,
									"outlettype" : [ "" ],
									"patching_rect" : [ 50.0, 166.0, 105.0, 22.0 ],
									"style" : "",
									"text" : "scale 0. 1. 1. 255."
								}

							}
, 							{
								"box" : 								{
									"comment" : "",
									"id" : "obj-41",
									"index" : 1,
									"maxclass" : "inlet",
									"numinlets" : 0,
									"numoutlets" : 1,
									"outlettype" : [ "float" ],
									"patching_rect" : [ 50.0, 40.0, 30.0, 30.0 ],
									"style" : ""
								}

							}
, 							{
								"box" : 								{
									"comment" : "",
									"id" : "obj-42",
									"index" : 1,
									"maxclass" : "outlet",
									"numinlets" : 1,
									"numoutlets" : 0,
									"patching_rect" : [ 60.5, 341.0, 30.0, 30.0 ],
									"style" : ""
								}

							}
 ],
						"lines" : [ 							{
								"patchline" : 								{
									"destination" : [ "obj-48", 0 ],
									"source" : [ "obj-1", 0 ]
								}

							}
, 							{
								"patchline" : 								{
									"destination" : [ "obj-39", 0 ],
									"source" : [ "obj-28", 0 ]
								}

							}
, 							{
								"patchline" : 								{
									"destination" : [ "obj-28", 0 ],
									"source" : [ "obj-29", 0 ]
								}

							}
, 							{
								"patchline" : 								{
									"destination" : [ "obj-35", 0 ],
									"source" : [ "obj-34", 0 ]
								}

							}
, 							{
								"patchline" : 								{
									"destination" : [ "obj-42", 0 ],
									"source" : [ "obj-35", 0 ]
								}

							}
, 							{
								"patchline" : 								{
									"destination" : [ "obj-34", 0 ],
									"source" : [ "obj-39", 1 ]
								}

							}
, 							{
								"patchline" : 								{
									"destination" : [ "obj-35", 1 ],
									"source" : [ "obj-39", 0 ]
								}

							}
, 							{
								"patchline" : 								{
									"destination" : [ "obj-49", 0 ],
									"source" : [ "obj-41", 0 ]
								}

							}
, 							{
								"patchline" : 								{
									"destination" : [ "obj-29", 2 ],
									"source" : [ "obj-48", 0 ]
								}

							}
, 							{
								"patchline" : 								{
									"destination" : [ "obj-29", 1 ],
									"source" : [ "obj-49", 1 ]
								}

							}
, 							{
								"patchline" : 								{
									"destination" : [ "obj-29", 0 ],
									"source" : [ "obj-49", 0 ]
								}

							}
 ]
					}
,
					"patching_rect" : [ 75.0, 468.0, 57.0, 22.0 ],
					"saved_object_attributes" : 					{
						"description" : "",
						"digest" : "",
						"globalpatchername" : "",
						"style" : "",
						"tags" : ""
					}
,
					"style" : "",
					"text" : "p Limiter"
				}

			}
, 			{
				"box" : 				{
					"id" : "obj-44",
					"maxclass" : "newobj",
					"numinlets" : 2,
					"numoutlets" : 1,
					"outlettype" : [ "" ],
					"patcher" : 					{
						"fileversion" : 1,
						"appversion" : 						{
							"major" : 7,
							"minor" : 3,
							"revision" : 4,
							"architecture" : "x86",
							"modernui" : 1
						}
,
						"rect" : [ 156.0, 135.0, 218.0, 480.0 ],
						"bglocked" : 0,
						"openinpresentation" : 0,
						"default_fontsize" : 12.0,
						"default_fontface" : 0,
						"default_fontname" : "Arial",
						"gridonopen" : 1,
						"gridsize" : [ 15.0, 15.0 ],
						"gridsnaponopen" : 1,
						"objectsnaponopen" : 1,
						"statusbarvisible" : 2,
						"toolbarvisible" : 1,
						"lefttoolbarpinned" : 0,
						"toptoolbarpinned" : 0,
						"righttoolbarpinned" : 0,
						"bottomtoolbarpinned" : 0,
						"toolbars_unpinned_last_save" : 0,
						"tallnewobj" : 0,
						"boxanimatetime" : 200,
						"enablehscroll" : 1,
						"enablevscroll" : 1,
						"devicewidth" : 0.0,
						"description" : "",
						"digest" : "",
						"tags" : "",
						"style" : "",
						"subpatcher_template" : "",
						"boxes" : [ 							{
								"box" : 								{
									"comment" : "",
									"id" : "obj-1",
									"index" : 2,
									"maxclass" : "inlet",
									"numinlets" : 0,
									"numoutlets" : 1,
									"outlettype" : [ "" ],
									"patching_rect" : [ 100.0, 40.0, 30.0, 30.0 ],
									"style" : ""
								}

							}
, 							{
								"box" : 								{
									"id" : "obj-49",
									"maxclass" : "newobj",
									"numinlets" : 1,
									"numoutlets" : 2,
									"outlettype" : [ "bang", "float" ],
									"patching_rect" : [ 50.0, 95.0, 31.0, 22.0 ],
									"style" : "",
									"text" : "t b f"
								}

							}
, 							{
								"box" : 								{
									"format" : 6,
									"id" : "obj-48",
									"maxclass" : "flonum",
									"maximum" : 0.99,
									"minimum" : 0.0,
									"numinlets" : 1,
									"numoutlets" : 2,
									"outlettype" : [ "", "bang" ],
									"parameter_enable" : 1,
									"patching_rect" : [ 100.0, 80.0, 50.0, 22.0 ],
									"saved_attribute_attributes" : 									{
										"valueof" : 										{
											"parameter_longname" : "number",
											"parameter_shortname" : "number",
											"parameter_type" : 3,
											"parameter_initial_enable" : 1,
											"parameter_initial" : [ 0.2 ],
											"parameter_invisible" : 1
										}

									}
,
									"style" : "",
									"varname" : "number"
								}

							}
, 							{
								"box" : 								{
									"fontname" : "Arial",
									"fontsize" : 12.26173,
									"id" : "obj-29",
									"maxclass" : "newobj",
									"numinlets" : 3,
									"numoutlets" : 1,
									"outlettype" : [ "float" ],
									"patcher" : 									{
										"fileversion" : 1,
										"appversion" : 										{
											"major" : 7,
											"minor" : 3,
											"revision" : 4,
											"architecture" : "x86",
											"modernui" : 1
										}
,
										"rect" : [ 484.0, 148.0, 640.0, 480.0 ],
										"bglocked" : 0,
										"openinpresentation" : 0,
										"default_fontsize" : 12.0,
										"default_fontface" : 0,
										"default_fontname" : "Arial",
										"gridonopen" : 1,
										"gridsize" : [ 15.0, 15.0 ],
										"gridsnaponopen" : 1,
										"objectsnaponopen" : 1,
										"statusbarvisible" : 2,
										"toolbarvisible" : 1,
										"lefttoolbarpinned" : 0,
										"toptoolbarpinned" : 0,
										"righttoolbarpinned" : 0,
										"bottomtoolbarpinned" : 0,
										"toolbars_unpinned_last_save" : 0,
										"tallnewobj" : 0,
										"boxanimatetime" : 200,
										"enablehscroll" : 1,
										"enablevscroll" : 1,
										"devicewidth" : 0.0,
										"description" : "",
										"digest" : "",
										"tags" : "",
										"style" : "",
										"subpatcher_template" : "",
										"boxes" : [ 											{
												"box" : 												{
													"fontname" : "Arial",
													"fontsize" : 12.0,
													"id" : "obj-2",
													"maxclass" : "newobj",
													"numinlets" : 2,
													"numoutlets" : 1,
													"outlettype" : [ "float" ],
													"patching_rect" : [ 189.0, 100.0, 55.0, 22.0 ],
													"style" : "",
													"text" : "!- 1."
												}

											}
, 											{
												"box" : 												{
													"fontname" : "Arial",
													"fontsize" : 12.0,
													"id" : "obj-15",
													"maxclass" : "newobj",
													"numinlets" : 2,
													"numoutlets" : 1,
													"outlettype" : [ "float" ],
													"patching_rect" : [ 96.0, 277.0, 39.0, 22.0 ],
													"style" : "",
													"text" : "* 0.9"
												}

											}
, 											{
												"box" : 												{
													"fontname" : "Arial",
													"fontsize" : 12.0,
													"id" : "obj-16",
													"maxclass" : "newobj",
													"numinlets" : 2,
													"numoutlets" : 1,
													"outlettype" : [ "float" ],
													"patching_rect" : [ 50.0, 307.0, 65.0, 22.0 ],
													"style" : "",
													"text" : "+ 0."
												}

											}
, 											{
												"box" : 												{
													"fontname" : "Arial",
													"fontsize" : 12.0,
													"id" : "obj-17",
													"maxclass" : "newobj",
													"numinlets" : 2,
													"numoutlets" : 1,
													"outlettype" : [ "float" ],
													"patching_rect" : [ 50.0, 277.0, 39.0, 22.0 ],
													"style" : "",
													"text" : "* 0.1"
												}

											}
, 											{
												"box" : 												{
													"fontname" : "Arial",
													"fontsize" : 12.0,
													"id" : "obj-20",
													"maxclass" : "newobj",
													"numinlets" : 2,
													"numoutlets" : 1,
													"outlettype" : [ "float" ],
													"patching_rect" : [ 50.0, 247.0, 27.0, 22.0 ],
													"style" : "",
													"text" : "f"
												}

											}
, 											{
												"box" : 												{
													"comment" : "",
													"id" : "obj-25",
													"index" : 1,
													"maxclass" : "inlet",
													"numinlets" : 0,
													"numoutlets" : 1,
													"outlettype" : [ "bang" ],
													"patching_rect" : [ 56.0, 40.0, 25.0, 25.0 ],
													"style" : ""
												}

											}
, 											{
												"box" : 												{
													"comment" : "",
													"id" : "obj-26",
													"index" : 2,
													"maxclass" : "inlet",
													"numinlets" : 0,
													"numoutlets" : 1,
													"outlettype" : [ "float" ],
													"patching_rect" : [ 90.0, 40.0, 25.0, 25.0 ],
													"style" : ""
												}

											}
, 											{
												"box" : 												{
													"comment" : "",
													"id" : "obj-27",
													"index" : 3,
													"maxclass" : "inlet",
													"numinlets" : 0,
													"numoutlets" : 1,
													"outlettype" : [ "" ],
													"patching_rect" : [ 119.0, 40.0, 25.0, 25.0 ],
													"style" : ""
												}

											}
, 											{
												"box" : 												{
													"comment" : "",
													"id" : "obj-28",
													"index" : 1,
													"maxclass" : "outlet",
													"numinlets" : 1,
													"numoutlets" : 0,
													"patching_rect" : [ 50.0, 399.5, 25.0, 25.0 ],
													"style" : ""
												}

											}
 ],
										"lines" : [ 											{
												"patchline" : 												{
													"destination" : [ "obj-16", 1 ],
													"source" : [ "obj-15", 0 ]
												}

											}
, 											{
												"patchline" : 												{
													"destination" : [ "obj-15", 0 ],
													"midpoints" : [ 59.5, 337.0, 153.0, 337.0, 153.0, 264.0, 105.5, 264.0 ],
													"order" : 0,
													"source" : [ "obj-16", 0 ]
												}

											}
, 											{
												"patchline" : 												{
													"destination" : [ "obj-28", 0 ],
													"order" : 1,
													"source" : [ "obj-16", 0 ]
												}

											}
, 											{
												"patchline" : 												{
													"destination" : [ "obj-16", 0 ],
													"source" : [ "obj-17", 0 ]
												}

											}
, 											{
												"patchline" : 												{
													"destination" : [ "obj-15", 1 ],
													"midpoints" : [ 198.5, 181.0, 125.5, 181.0 ],
													"source" : [ "obj-2", 0 ]
												}

											}
, 											{
												"patchline" : 												{
													"destination" : [ "obj-17", 0 ],
													"source" : [ "obj-20", 0 ]
												}

											}
, 											{
												"patchline" : 												{
													"destination" : [ "obj-20", 0 ],
													"source" : [ "obj-25", 0 ]
												}

											}
, 											{
												"patchline" : 												{
													"destination" : [ "obj-20", 1 ],
													"source" : [ "obj-26", 0 ]
												}

											}
, 											{
												"patchline" : 												{
													"destination" : [ "obj-17", 1 ],
													"order" : 1,
													"source" : [ "obj-27", 0 ]
												}

											}
, 											{
												"patchline" : 												{
													"destination" : [ "obj-2", 0 ],
													"order" : 0,
													"source" : [ "obj-27", 0 ]
												}

											}
 ]
									}
,
									"patching_rect" : [ 50.0, 131.0, 69.0, 23.0 ],
									"saved_object_attributes" : 									{
										"description" : "",
										"digest" : "",
										"globalpatchername" : "",
										"style" : "",
										"tags" : ""
									}
,
									"style" : "",
									"text" : "p smooth"
								}

							}
, 							{
								"box" : 								{
									"id" : "obj-39",
									"maxclass" : "newobj",
									"numinlets" : 1,
									"numoutlets" : 2,
									"outlettype" : [ "float", "float" ],
									"patching_rect" : [ 50.0, 197.0, 29.5, 22.0 ],
									"style" : "",
									"text" : "t f f"
								}

							}
, 							{
								"box" : 								{
									"id" : "obj-35",
									"maxclass" : "newobj",
									"numinlets" : 2,
									"numoutlets" : 1,
									"outlettype" : [ "" ],
									"patching_rect" : [ 60.5, 259.0, 34.0, 22.0 ],
									"style" : "",
									"text" : "gate"
								}

							}
, 							{
								"box" : 								{
									"id" : "obj-34",
									"maxclass" : "newobj",
									"numinlets" : 2,
									"numoutlets" : 1,
									"outlettype" : [ "int" ],
									"patching_rect" : [ 60.5, 227.0, 44.0, 22.0 ],
									"style" : "",
									"text" : "< 255."
								}

							}
, 							{
								"box" : 								{
									"id" : "obj-28",
									"maxclass" : "newobj",
									"numinlets" : 6,
									"numoutlets" : 1,
									"outlettype" : [ "" ],
									"patching_rect" : [ 50.0, 166.0, 105.0, 22.0 ],
									"style" : "",
									"text" : "scale 0. 1. 1. 255."
								}

							}
, 							{
								"box" : 								{
									"comment" : "",
									"id" : "obj-41",
									"index" : 1,
									"maxclass" : "inlet",
									"numinlets" : 0,
									"numoutlets" : 1,
									"outlettype" : [ "float" ],
									"patching_rect" : [ 50.0, 40.0, 30.0, 30.0 ],
									"style" : ""
								}

							}
, 							{
								"box" : 								{
									"comment" : "",
									"id" : "obj-42",
									"index" : 1,
									"maxclass" : "outlet",
									"numinlets" : 1,
									"numoutlets" : 0,
									"patching_rect" : [ 60.5, 341.0, 30.0, 30.0 ],
									"style" : ""
								}

							}
 ],
						"lines" : [ 							{
								"patchline" : 								{
									"destination" : [ "obj-48", 0 ],
									"source" : [ "obj-1", 0 ]
								}

							}
, 							{
								"patchline" : 								{
									"destination" : [ "obj-39", 0 ],
									"source" : [ "obj-28", 0 ]
								}

							}
, 							{
								"patchline" : 								{
									"destination" : [ "obj-28", 0 ],
									"source" : [ "obj-29", 0 ]
								}

							}
, 							{
								"patchline" : 								{
									"destination" : [ "obj-35", 0 ],
									"source" : [ "obj-34", 0 ]
								}

							}
, 							{
								"patchline" : 								{
									"destination" : [ "obj-42", 0 ],
									"source" : [ "obj-35", 0 ]
								}

							}
, 							{
								"patchline" : 								{
									"destination" : [ "obj-34", 0 ],
									"source" : [ "obj-39", 1 ]
								}

							}
, 							{
								"patchline" : 								{
									"destination" : [ "obj-35", 1 ],
									"source" : [ "obj-39", 0 ]
								}

							}
, 							{
								"patchline" : 								{
									"destination" : [ "obj-49", 0 ],
									"source" : [ "obj-41", 0 ]
								}

							}
, 							{
								"patchline" : 								{
									"destination" : [ "obj-29", 2 ],
									"source" : [ "obj-48", 0 ]
								}

							}
, 							{
								"patchline" : 								{
									"destination" : [ "obj-29", 1 ],
									"source" : [ "obj-49", 1 ]
								}

							}
, 							{
								"patchline" : 								{
									"destination" : [ "obj-29", 0 ],
									"source" : [ "obj-49", 0 ]
								}

							}
 ]
					}
,
					"patching_rect" : [ 30.0, 441.0, 57.0, 22.0 ],
					"saved_object_attributes" : 					{
						"description" : "",
						"digest" : "",
						"globalpatchername" : "",
						"style" : "",
						"tags" : ""
					}
,
					"style" : "",
					"text" : "p Limiter"
				}

			}
, 			{
				"box" : 				{
					"id" : "obj-24",
					"maxclass" : "meter~",
					"numinlets" : 1,
					"numoutlets" : 1,
					"outlettype" : [ "float" ],
					"patching_rect" : [ 120.0, 345.0, 15.0, 90.0 ],
					"style" : ""
				}

			}
, 			{
				"box" : 				{
					"id" : "obj-23",
					"maxclass" : "meter~",
					"numinlets" : 1,
					"numoutlets" : 1,
					"outlettype" : [ "float" ],
					"patching_rect" : [ 75.0, 345.0, 15.0, 90.0 ],
					"style" : ""
				}

			}
, 			{
				"box" : 				{
					"fontname" : "Arial",
					"fontsize" : 13.0,
					"id" : "obj-56",
					"maxclass" : "newobj",
					"numinlets" : 2,
					"numoutlets" : 1,
					"outlettype" : [ "signal" ],
					"patching_rect" : [ 117.0, 315.0, 45.0, 23.0 ],
					"style" : "",
					"text" : "*~ 1.5"
				}

			}
, 			{
				"box" : 				{
					"fontname" : "Arial",
					"fontsize" : 13.0,
					"id" : "obj-57",
					"maxclass" : "newobj",
					"numinlets" : 2,
					"numoutlets" : 1,
					"outlettype" : [ "signal" ],
					"patching_rect" : [ 75.0, 315.0, 38.0, 23.0 ],
					"style" : "",
					"text" : "*~ 1."
				}

			}
, 			{
				"box" : 				{
					"fontname" : "Arial",
					"fontsize" : 13.0,
					"id" : "obj-58",
					"maxclass" : "newobj",
					"numinlets" : 2,
					"numoutlets" : 1,
					"outlettype" : [ "signal" ],
					"patching_rect" : [ 30.0, 315.0, 38.0, 23.0 ],
					"style" : "",
					"text" : "*~ 1."
				}

			}
, 			{
				"box" : 				{
					"hiderwff" : 1,
					"id" : "obj-15",
					"maxclass" : "playbar",
					"numinlets" : 1,
					"numoutlets" : 2,
					"outlettype" : [ "", "int" ],
					"patching_rect" : [ 165.0, 75.0, 196.0, 19.0 ],
					"style" : ""
				}

			}
, 			{
				"box" : 				{
					"fontname" : "Arial",
					"fontsize" : 13.0,
					"id" : "obj-16",
					"maxclass" : "newobj",
					"numinlets" : 1,
					"numoutlets" : 1,
					"outlettype" : [ "" ],
					"patching_rect" : [ 30.0, 75.0, 91.0, 23.0 ],
					"style" : "",
					"text" : "prepend open"
				}

			}
, 			{
				"box" : 				{
					"autopopulate" : 1,
					"id" : "obj-17",
					"items" : [ "anton.aif", ",", "brushes.aif", ",", "cello-f2.aif", ",", "cherokee.aif", ",", "drumLoop.aif", ",", "duduk.aif", ",", "jongly.aif", ",", "rainstick.aif", ",", "sho0630.aif", ",", "vibes-a1.aif" ],
					"maxclass" : "umenu",
					"numinlets" : 1,
					"numoutlets" : 3,
					"outlettype" : [ "int", "", "" ],
					"parameter_enable" : 0,
					"patching_rect" : [ 30.0, 44.0, 100.0, 22.0 ],
					"prefix" : "C:/Program Files (x86)/Cycling '74/Max 7/resources/media/msp/",
					"style" : ""
				}

			}
, 			{
				"box" : 				{
					"fontface" : 0,
					"fontname" : "Arial",
					"fontsize" : 13.0,
					"id" : "obj-18",
					"maxclass" : "newobj",
					"numinlets" : 1,
					"numoutlets" : 1,
					"outlettype" : [ "" ],
					"patching_rect" : [ 30.0, 16.0, 200.0, 23.0 ],
					"style" : "",
					"text" : "loadmess prefix C74:/media/msp"
				}

			}
, 			{
				"box" : 				{
					"fontname" : "Arial",
					"fontsize" : 13.0,
					"id" : "obj-43",
					"maxclass" : "newobj",
					"numinlets" : 2,
					"numoutlets" : 2,
					"outlettype" : [ "signal", "bang" ],
					"patching_rect" : [ 30.0, 120.0, 53.0, 23.0 ],
					"saved_object_attributes" : 					{
						"basictuning" : 440,
						"followglobaltempo" : 0,
						"formantcorrection" : 0,
						"mode" : "basic",
						"originallength" : [ 1234.612305, "ticks" ],
						"originaltempo" : 120.000008,
						"pitchcorrection" : 0,
						"quality" : "basic",
						"timestretch" : [ 0 ]
					}
,
					"style" : "",
					"text" : "sfplay~"
				}

			}
, 			{
				"box" : 				{
					"id" : "obj-2",
					"maxclass" : "meter~",
					"numinlets" : 1,
					"numoutlets" : 1,
					"outlettype" : [ "float" ],
					"patching_rect" : [ 30.0, 345.0, 15.0, 90.0 ],
					"style" : ""
				}

			}
, 			{
				"box" : 				{
					"id" : "obj-13",
					"maxclass" : "live.dial",
					"numinlets" : 1,
					"numoutlets" : 2,
					"outlettype" : [ "", "float" ],
					"parameter_enable" : 1,
					"patching_rect" : [ 120.0, 525.0, 44.0, 47.0 ],
					"saved_attribute_attributes" : 					{
						"valueof" : 						{
							"parameter_longname" : "live.dial[2]",
							"parameter_shortname" : "live.dial",
							"parameter_type" : 0,
							"parameter_mmin" : 1.0,
							"parameter_mmax" : 255.0,
							"parameter_unitstyle" : 0
						}

					}
,
					"varname" : "live.dial[2]"
				}

			}
, 			{
				"box" : 				{
					"id" : "obj-12",
					"maxclass" : "button",
					"numinlets" : 1,
					"numoutlets" : 1,
					"outlettype" : [ "bang" ],
					"patching_rect" : [ 120.0, 595.0, 24.0, 24.0 ],
					"style" : ""
				}

			}
, 			{
				"box" : 				{
					"id" : "obj-8",
					"maxclass" : "message",
					"numinlets" : 2,
					"numoutlets" : 1,
					"outlettype" : [ "" ],
					"patching_rect" : [ 15.0, 660.0, 85.5, 22.0 ],
					"style" : "",
					"text" : "1 1 1 0"
				}

			}
, 			{
				"box" : 				{
					"id" : "obj-6",
					"maxclass" : "newobj",
					"numinlets" : 4,
					"numoutlets" : 1,
					"outlettype" : [ "" ],
					"patching_rect" : [ 120.0, 630.0, 76.0, 22.0 ],
					"style" : "",
					"text" : "pack 0 0 0 0"
				}

			}
, 			{
				"box" : 				{
					"id" : "obj-5",
					"maxclass" : "live.dial",
					"numinlets" : 1,
					"numoutlets" : 2,
					"outlettype" : [ "", "float" ],
					"parameter_enable" : 1,
					"patching_rect" : [ 75.0, 525.0, 44.0, 47.0 ],
					"saved_attribute_attributes" : 					{
						"valueof" : 						{
							"parameter_longname" : "live.dial[1]",
							"parameter_shortname" : "live.dial",
							"parameter_type" : 0,
							"parameter_mmin" : 1.0,
							"parameter_mmax" : 255.0,
							"parameter_unitstyle" : 0
						}

					}
,
					"varname" : "live.dial[1]"
				}

			}
, 			{
				"box" : 				{
					"id" : "obj-4",
					"maxclass" : "newobj",
					"numinlets" : 1,
					"numoutlets" : 0,
					"patching_rect" : [ 180.0, 705.0, 128.0, 22.0 ],
					"style" : "",
					"text" : "print status @popup 1"
				}

			}
, 			{
				"box" : 				{
					"id" : "obj-3",
					"maxclass" : "live.dial",
					"numinlets" : 1,
					"numoutlets" : 2,
					"outlettype" : [ "", "float" ],
					"parameter_enable" : 1,
					"patching_rect" : [ 30.0, 525.0, 44.0, 47.0 ],
					"saved_attribute_attributes" : 					{
						"valueof" : 						{
							"parameter_longname" : "live.dial",
							"parameter_shortname" : "live.dial",
							"parameter_type" : 0,
							"parameter_mmin" : 1.0,
							"parameter_mmax" : 255.0,
							"parameter_unitstyle" : 0
						}

					}
,
					"varname" : "live.dial"
				}

			}
, 			{
				"box" : 				{
					"id" : "obj-1",
					"maxclass" : "newobj",
					"numinlets" : 1,
					"numoutlets" : 2,
					"outlettype" : [ "int", "" ],
					"patching_rect" : [ 120.0, 660.0, 79.0, 22.0 ],
					"style" : "",
					"text" : "serial c 9600"
				}

			}
 ],
		"lines" : [ 			{
				"patchline" : 				{
					"destination" : [ "obj-4", 0 ],
					"source" : [ "obj-1", 1 ]
				}

			}
, 			{
				"patchline" : 				{
					"destination" : [ "obj-6", 0 ],
					"source" : [ "obj-12", 0 ]
				}

			}
, 			{
				"patchline" : 				{
					"destination" : [ "obj-12", 0 ],
					"order" : 1,
					"source" : [ "obj-13", 0 ]
				}

			}
, 			{
				"patchline" : 				{
					"destination" : [ "obj-6", 2 ],
					"order" : 0,
					"source" : [ "obj-13", 0 ]
				}

			}
, 			{
				"patchline" : 				{
					"destination" : [ "obj-43", 0 ],
					"midpoints" : [ 174.5, 103.5, 39.5, 103.5 ],
					"source" : [ "obj-15", 0 ]
				}

			}
, 			{
				"patchline" : 				{
					"destination" : [ "obj-43", 0 ],
					"source" : [ "obj-16", 0 ]
				}

			}
, 			{
				"patchline" : 				{
					"destination" : [ "obj-16", 0 ],
					"source" : [ "obj-17", 1 ]
				}

			}
, 			{
				"patchline" : 				{
					"destination" : [ "obj-17", 0 ],
					"source" : [ "obj-18", 0 ]
				}

			}
, 			{
				"patchline" : 				{
					"destination" : [ "obj-44", 0 ],
					"source" : [ "obj-2", 0 ]
				}

			}
, 			{
				"patchline" : 				{
					"destination" : [ "obj-51", 0 ],
					"source" : [ "obj-23", 0 ]
				}

			}
, 			{
				"patchline" : 				{
					"destination" : [ "obj-55", 0 ],
					"source" : [ "obj-24", 0 ]
				}

			}
, 			{
				"patchline" : 				{
					"destination" : [ "obj-6", 0 ],
					"source" : [ "obj-3", 0 ]
				}

			}
, 			{
				"patchline" : 				{
					"destination" : [ "obj-46", 0 ],
					"order" : 0,
					"source" : [ "obj-32", 0 ]
				}

			}
, 			{
				"patchline" : 				{
					"destination" : [ "obj-58", 0 ],
					"order" : 1,
					"source" : [ "obj-32", 0 ]
				}

			}
, 			{
				"patchline" : 				{
					"destination" : [ "obj-32", 1 ],
					"source" : [ "obj-34", 0 ]
				}

			}
, 			{
				"patchline" : 				{
					"destination" : [ "obj-42", 0 ],
					"source" : [ "obj-40", 0 ]
				}

			}
, 			{
				"patchline" : 				{
					"destination" : [ "obj-40", 1 ],
					"source" : [ "obj-41", 0 ]
				}

			}
, 			{
				"patchline" : 				{
					"destination" : [ "obj-56", 0 ],
					"source" : [ "obj-42", 0 ]
				}

			}
, 			{
				"patchline" : 				{
					"destination" : [ "obj-32", 0 ],
					"order" : 3,
					"source" : [ "obj-43", 0 ]
				}

			}
, 			{
				"patchline" : 				{
					"destination" : [ "obj-40", 0 ],
					"order" : 1,
					"source" : [ "obj-43", 0 ]
				}

			}
, 			{
				"patchline" : 				{
					"destination" : [ "obj-42", 1 ],
					"order" : 0,
					"source" : [ "obj-43", 0 ]
				}

			}
, 			{
				"patchline" : 				{
					"destination" : [ "obj-46", 1 ],
					"order" : 2,
					"source" : [ "obj-43", 0 ]
				}

			}
, 			{
				"patchline" : 				{
					"destination" : [ "obj-3", 0 ],
					"source" : [ "obj-44", 0 ]
				}

			}
, 			{
				"patchline" : 				{
					"destination" : [ "obj-48", 0 ],
					"source" : [ "obj-46", 0 ]
				}

			}
, 			{
				"patchline" : 				{
					"destination" : [ "obj-48", 1 ],
					"source" : [ "obj-47", 0 ]
				}

			}
, 			{
				"patchline" : 				{
					"destination" : [ "obj-57", 0 ],
					"source" : [ "obj-48", 0 ]
				}

			}
, 			{
				"patchline" : 				{
					"destination" : [ "obj-12", 0 ],
					"order" : 1,
					"source" : [ "obj-5", 0 ]
				}

			}
, 			{
				"patchline" : 				{
					"destination" : [ "obj-6", 1 ],
					"order" : 0,
					"source" : [ "obj-5", 0 ]
				}

			}
, 			{
				"patchline" : 				{
					"destination" : [ "obj-5", 0 ],
					"source" : [ "obj-51", 0 ]
				}

			}
, 			{
				"patchline" : 				{
					"destination" : [ "obj-13", 0 ],
					"source" : [ "obj-55", 0 ]
				}

			}
, 			{
				"patchline" : 				{
					"destination" : [ "obj-24", 0 ],
					"source" : [ "obj-56", 0 ]
				}

			}
, 			{
				"patchline" : 				{
					"destination" : [ "obj-23", 0 ],
					"source" : [ "obj-57", 0 ]
				}

			}
, 			{
				"patchline" : 				{
					"destination" : [ "obj-2", 0 ],
					"source" : [ "obj-58", 0 ]
				}

			}
, 			{
				"patchline" : 				{
					"destination" : [ "obj-1", 0 ],
					"order" : 0,
					"source" : [ "obj-6", 0 ]
				}

			}
, 			{
				"patchline" : 				{
					"destination" : [ "obj-8", 1 ],
					"order" : 1,
					"source" : [ "obj-6", 0 ]
				}

			}
 ],
		"parameters" : 		{
			"obj-13" : [ "live.dial[2]", "live.dial", 0 ],
			"obj-44::obj-48" : [ "number", "number", 0 ],
			"obj-51::obj-48" : [ "number[1]", "number", 0 ],
			"obj-55::obj-48" : [ "number[2]", "number", 0 ],
			"obj-3" : [ "live.dial", "live.dial", 0 ],
			"obj-5" : [ "live.dial[1]", "live.dial", 0 ]
		}
,
		"dependency_cache" : [  ],
		"autosave" : 0
	}

}
